<svg version="1.1" id="Layer_1" xmlns="http://www.w3.org/2000/svg" xmlns:xlink="http://www.w3.org/1999/xlink" x="0px" y="0px"
	 width="100%" viewBox="0 0 400 143" enable-background="new 0 0 400 143" xml:space="preserve">
<path fill="#FDFDFD" opacity="1.000000" stroke="none" 
	d="
M401.000000,3.000004 
	C401.000000,49.937244 401.000000,96.874489 401.000000,144.000000 
	C338.979218,144.000000 276.958282,144.000000 214.455109,143.544891 
	C213.320999,139.216553 212.669098,135.343307 211.804276,131.314133 
	C210.899933,131.088623 210.208511,131.019043 209.036713,131.042191 
	C207.063583,131.363724 205.570862,131.592545 204.000000,131.833328 
	C204.000000,136.020035 204.000000,140.010010 204.000000,144.000000 
	C202.285645,144.000000 200.571289,144.000000 198.514374,143.653641 
	C198.846085,142.388901 199.520370,141.470520 200.883133,139.614426 
	C193.884232,142.835144 193.835709,142.824539 192.065170,138.250351 
	C194.876160,138.094528 197.596848,137.943726 200.324432,137.792526 
	C199.839203,132.584061 197.744827,130.376740 194.215286,131.069077 
	C190.834717,131.732193 188.763474,135.362869 189.788559,139.298462 
	C190.217651,140.945877 191.244781,142.437531 192.000000,144.000000 
	C190.611115,144.000000 189.222214,144.000000 187.410583,143.582794 
	C182.746689,140.123062 182.590134,134.713699 186.440918,132.268921 
	C185.214691,130.897491 183.971603,129.507217 182.245026,127.576180 
	C179.734222,133.433670 181.457458,138.715622 183.000000,144.000000 
	C181.285645,144.000000 179.571289,144.000000 177.361664,143.540924 
	C176.866379,139.104645 176.866379,135.127426 176.866379,131.150208 
	C175.910919,131.171341 174.955460,131.192490 174.000000,131.213623 
	C174.000000,135.475754 174.000000,139.737869 174.000000,144.000000 
	C172.933334,144.000000 171.866653,144.000000 170.374298,143.744812 
	C169.912796,143.322418 169.876999,143.155212 169.954712,142.541519 
	C170.068237,138.496246 170.068237,134.897476 170.068237,131.298721 
	C169.638214,131.302109 169.208206,131.305496 168.778183,131.308884 
	C168.014740,134.820282 167.251282,138.331696 166.108856,141.853607 
	C162.095032,142.198502 162.356216,139.613525 162.219711,137.252823 
	C162.102631,135.228470 161.859543,133.211395 161.672165,131.191101 
	C160.878891,131.332504 160.085602,131.473892 159.292313,131.615295 
	C160.194885,135.743530 161.097443,139.871765 162.000000,144.000000 
	C159.299988,144.000000 156.599976,144.000000 153.575409,143.670410 
	C160.770905,140.908127 152.709518,134.919907 155.883118,131.323929 
	C156.264252,130.892075 155.018738,128.680191 154.140533,127.610847 
	C153.615646,126.971741 152.350571,126.751534 151.396576,126.692429 
	C149.286865,126.561729 147.163483,126.651764 145.000000,126.651764 
	C145.000000,132.724625 145.000000,138.362320 145.000000,144.000000 
	C140.975449,144.000000 136.950912,144.000000 132.631348,143.680176 
	C138.368134,135.866486 128.016876,137.809601 126.737503,133.639511 
	C129.096832,133.639511 131.072723,133.639511 133.048615,133.639511 
	C132.978271,132.938400 132.907944,132.237274 132.837616,131.536163 
	C130.372375,131.904892 126.448639,131.445282 125.689049,132.782730 
	C121.984909,139.304718 130.906281,137.015503 132.288330,142.057632 
	C129.374161,141.477814 127.176620,141.040588 124.719955,140.551804 
	C125.178276,141.786438 125.589134,142.893219 126.000000,144.000000 
	C124.611107,144.000000 123.222221,144.000000 121.439758,143.542755 
	C121.063988,140.427109 121.369186,137.726028 120.983452,135.127533 
	C120.777679,133.741318 119.454407,131.498611 118.504059,131.428680 
	C115.051567,131.174622 111.543571,131.675034 107.653252,131.834747 
	C106.400429,132.400497 104.848190,132.991226 104.819000,133.649490 
	C104.666428,137.090210 104.900429,140.548096 105.000000,144.000000 
	C103.285645,144.000000 101.571281,144.000000 99.378555,143.584991 
	C98.071678,142.767914 97.204376,142.429077 96.423264,141.949768 
	C95.072609,141.120972 93.775436,140.204987 92.455826,139.325592 
	C92.693253,138.871307 92.930679,138.417023 93.168098,137.962738 
	C95.772003,137.962738 98.375900,137.962738 100.985359,137.962738 
	C100.826332,132.780396 98.863113,130.518143 95.248169,131.020477 
	C91.877892,131.488815 89.413429,135.207291 90.385864,138.903000 
	C90.860382,140.706436 92.104324,142.307388 93.000000,144.000000 
	C91.285645,144.000000 89.571281,144.000000 87.423767,143.543747 
	C87.014305,140.803818 87.140671,138.515610 87.040398,136.237381 
	C86.828995,131.434128 84.655579,130.209122 79.657936,132.020538 
	C79.043762,129.775146 78.807655,127.687965 78.571556,125.600777 
	C78.047699,125.637177 77.523849,125.673576 77.000000,125.709969 
	C77.000000,131.806641 77.000000,137.903320 77.000000,144.000000 
	C75.611107,144.000000 74.222221,144.000000 72.339386,143.563049 
	C71.916809,140.810135 71.793396,138.467911 72.101456,136.183884 
	C72.681702,131.881851 69.625206,131.456741 66.741264,131.061539 
	C65.476433,130.888214 64.105515,131.489014 62.608376,131.771164 
	C62.407032,135.818390 62.203518,139.909195 62.000000,144.000000 
	C59.958332,144.000000 57.916668,144.000000 55.413338,143.553909 
	C54.951675,139.187546 54.951675,135.267258 54.951675,131.346985 
	C54.301117,131.376953 53.650558,131.406906 53.000000,131.436874 
	C53.000000,135.624573 53.000000,139.812286 53.000000,144.000000 
	C52.250000,144.000000 51.500000,144.000000 50.176712,143.690308 
	C47.391319,137.577332 45.179211,131.774033 42.967106,125.970741 
	C42.330936,126.089333 41.694771,126.207916 41.058601,126.326508 
	C38.705734,132.217667 36.352867,138.108841 34.000000,144.000000 
	C31.299986,144.000000 28.599974,144.000000 25.456894,143.584869 
	C20.805622,140.178329 20.667519,134.606171 24.478048,132.250153 
	C23.259314,130.881470 22.022463,129.492447 20.354948,127.619789 
	C17.802826,133.430115 19.752903,138.711273 21.000000,144.000000 
	C19.285641,144.000000 17.571283,144.000000 15.414286,143.544281 
	C14.984027,140.446976 15.500890,137.667755 14.831115,135.212219 
	C14.385960,133.580200 12.419421,131.623932 10.811450,131.267548 
	C9.361680,130.946243 7.473382,132.603607 5.778489,133.388306 
	C5.989235,133.883240 6.199983,134.378159 6.410729,134.873077 
	C8.940310,133.631393 11.813640,131.052856 12.893427,135.899643 
	C10.453924,136.247437 8.184591,136.570953 5.694416,136.925964 
	C7.005018,139.730682 8.002509,141.865341 9.000000,144.000000 
	C6.352609,144.000000 3.705218,144.000000 1.000000,144.000000 
	C1.000000,126.645813 1.000000,109.291565 1.310083,91.655411 
	C3.184955,97.195831 6.085919,102.070015 11.404216,105.252792 
	C22.658649,111.988106 39.680027,106.373566 40.113544,91.759506 
	C36.569855,92.932846 32.394665,93.049728 30.479124,95.189491 
	C24.979670,101.332657 16.561090,101.239525 12.758690,93.909004 
	C9.587929,87.796196 9.626696,81.325249 12.979684,75.255898 
	C16.226744,69.378304 25.103266,67.623276 28.554775,72.739807 
	C31.965403,77.795723 35.954071,76.976219 40.457481,76.757187 
	C38.906544,68.073181 33.542229,62.838459 25.319920,61.845428 
	C15.369009,60.643635 7.152838,65.001823 3.239086,73.597183 
	C2.431707,75.370338 1.743262,77.197647 1.000000,79.000000 
	C1.000000,54.322845 0.984574,29.645657 1.042614,4.968640 
	C1.045727,3.645017 1.666667,2.322846 2.528649,1.298334 
	C3.090534,1.793687 3.123771,1.990707 3.125002,2.643328 
	C3.092997,17.647038 3.092997,32.195148 3.092997,46.557030 
	C13.805637,46.557030 23.708490,46.557030 33.627029,46.557030 
	C33.627029,43.769497 33.627029,41.333534 33.627029,38.293648 
	C26.522894,38.293648 19.634176,38.293648 12.605490,38.293648 
	C12.605490,34.585991 12.605490,31.486191 12.605490,27.850716 
	C19.016665,27.850716 25.248613,27.850716 31.540291,27.850716 
	C31.540291,24.916742 31.540291,22.526030 31.540291,19.719475 
	C25.136192,19.719475 19.037777,19.719475 12.686222,19.719475 
	C12.686222,16.356283 12.686222,13.413509 12.686222,9.840610 
	C19.694874,9.840610 26.734154,9.840610 33.794037,9.840610 
	C33.794037,6.888345 33.794037,4.563051 33.858967,1.930554 
	C33.949265,1.415567 33.974632,1.207784 34.000000,1.000000 
	C36.041668,1.000000 38.083332,1.000000 40.549297,1.468502 
	C40.973595,16.826784 40.973595,31.716562 40.973595,46.672829 
	C51.307026,46.672829 61.043724,46.672829 70.941818,46.672829 
	C70.941818,43.889263 70.941818,41.338970 70.941818,38.361889 
	C64.056480,38.361889 57.461510,38.361889 50.317211,38.361889 
	C50.317211,36.315655 50.317856,34.697529 50.317108,33.079399 
	C50.312874,23.938490 50.416107,14.795036 50.200451,5.659113 
	C50.163403,4.089636 48.767948,2.552224 48.000000,1.000000 
	C57.354229,1.000000 66.708458,1.000000 76.519577,1.269875 
	C77.001915,1.718030 77.027367,1.896310 76.994949,2.535315 
	C76.937088,17.565413 76.937088,32.134789 76.937088,46.669342 
	C87.422791,46.669342 97.178810,46.669342 107.095154,46.669342 
	C107.095154,43.862190 107.095154,41.293163 107.095154,38.285793 
	C100.027641,38.285793 93.277336,38.285793 86.374802,38.285793 
	C86.374802,34.616108 86.374802,31.394436 86.374802,27.830238 
	C92.771797,27.830238 98.874901,27.830238 105.247574,27.830238 
	C105.247574,25.075800 105.247574,22.665318 105.247574,19.700888 
	C98.803177,19.700888 92.565231,19.700888 86.334511,19.700888 
	C86.334511,16.222143 86.334511,13.298978 86.334511,9.847572 
	C93.449051,9.847572 100.325645,9.847572 107.564201,9.847572 
	C107.361336,6.845555 107.195602,4.392988 107.051743,1.704384 
	C107.073608,1.468347 107.000000,1.000000 107.000000,1.000000 
	C114.020943,1.000000 121.041893,1.000000 128.350159,1.316134 
	C118.896965,4.115881 113.453209,11.131335 112.500534,22.428196 
	C111.626732,32.789825 116.670120,42.389786 125.173279,45.860031 
	C136.895035,50.643814 150.903152,44.898933 151.780869,32.208427 
	C147.467590,32.112801 143.430893,31.002150 140.217239,36.083920 
	C137.173370,40.897205 129.330063,39.967239 125.431389,35.253208 
	C120.911644,29.788210 120.873901,18.777721 125.356018,13.260010 
	C129.127151,8.617555 137.173431,7.610547 140.205460,12.333837 
	C143.495392,17.458914 147.528687,16.130421 151.987259,16.017469 
	C150.956253,7.915030 145.475952,4.026771 139.000000,1.000000 
	C144.022095,1.000000 149.044189,1.000000 154.528656,1.269423 
	C155.011658,1.717301 155.032257,1.895755 154.991638,2.522445 
	C154.930420,5.229988 154.930420,7.489295 154.930420,10.220734 
	C160.005325,10.220734 164.553864,10.220734 169.408813,10.220734 
	C169.408813,22.626415 169.408813,34.531418 169.408813,46.653938 
	C172.630463,46.653938 175.523956,46.653938 178.912323,46.653938 
	C178.912323,34.393326 178.912323,22.373781 178.912323,9.905728 
	C183.964035,9.905728 188.534805,9.905728 192.994797,9.905728 
	C192.994797,6.966493 192.994797,4.487314 193.021271,1.756232 
	C193.031845,1.336218 193.015930,1.168109 193.000000,1.000000 
	C194.714355,1.000000 196.428711,1.000000 198.744156,1.310572 
	C199.407425,1.849717 199.469620,2.078292 199.469925,2.751417 
	C199.408035,17.646399 199.408035,32.096828 199.408035,46.512737 
	C202.860458,46.512737 205.744293,46.512737 208.961823,46.512737 
	C208.961823,40.844913 208.961823,35.558620 208.961823,28.397449 
	C211.949524,30.505426 214.116974,31.552645 215.608322,33.208706 
	C217.480133,35.287254 219.135239,37.711834 220.288879,40.256786 
	C223.264297,46.820545 228.158875,48.279575 234.990921,46.266891 
	C231.226425,40.656326 227.546112,35.171215 223.854965,29.669977 
	C231.973984,25.460699 234.847153,20.629539 233.591141,13.519855 
	C232.337479,6.423285 228.309891,2.944862 220.031662,1.655509 
	C219.964127,1.443521 220.000000,1.000000 220.000000,1.000000 
	C227.020950,1.000000 234.041901,1.000000 241.347321,1.393882 
	C241.321991,5.817224 240.791138,9.844155 240.744995,13.876632 
	C240.620499,24.760616 240.702408,35.646961 240.702408,46.687096 
	C244.060501,46.687096 246.801270,46.687096 250.020126,46.687096 
	C250.020126,32.273052 250.058838,18.055546 249.933365,3.839488 
	C249.924957,2.887376 248.673386,1.946238 248.000000,0.999998 
	C256.020905,1.000000 264.041809,1.000000 272.344360,1.312151 
	C263.394012,3.983418 258.170654,10.141759 256.697052,20.404549 
	C255.230164,30.620579 259.238617,40.254326 266.824280,44.743900 
	C278.900421,51.891151 293.813538,45.539177 295.796234,32.288002 
	C291.220795,31.868649 287.257385,31.337631 283.883942,36.345566 
	C280.617004,41.195362 272.591888,39.731930 268.863922,34.539238 
	C264.962646,29.105129 264.991974,19.171164 268.925232,13.767504 
	C272.711578,8.565742 281.102142,7.511404 284.421661,12.578938 
	C287.738800,17.642874 291.636932,16.152515 296.016266,15.858778 
	C294.470459,7.542468 289.109924,3.435144 282.000000,1.000000 
	C288.687653,1.000000 295.375275,1.000000 302.539124,1.246752 
	C303.015289,1.493505 302.986481,1.986405 302.730530,2.326803 
	C302.474609,17.245226 302.474609,31.823254 302.474609,46.644547 
	C305.738037,46.644547 308.620850,46.644547 311.747589,46.644547 
	C311.747589,31.651634 311.747589,16.913345 311.787842,1.876392 
	C311.885406,1.385150 311.942719,1.192575 312.000000,1.000000 
	C313.714355,1.000000 315.428711,1.000000 317.575073,1.275735 
	C318.029175,1.733978 318.051270,1.916486 318.016663,2.545651 
	C317.959991,5.250237 317.959991,7.508166 317.959991,10.226391 
	C323.053955,10.226391 327.613403,10.226391 332.485687,10.226391 
	C332.485687,22.630606 332.485687,34.547115 332.485687,46.643650 
	C335.722168,46.643650 338.616516,46.643650 341.999268,46.643650 
	C341.999268,34.360065 341.999268,22.329245 341.999268,9.851688 
	C347.045532,9.851688 351.606873,9.851688 356.416321,9.851688 
	C356.269806,6.908327 356.146637,4.434450 356.048645,1.719672 
	C356.073792,1.478771 356.000000,1.000000 356.000000,1.000000 
	C357.066681,1.000000 358.133331,1.000000 359.524475,1.320405 
	C362.011353,5.853761 363.766571,10.344999 366.417450,14.224169 
	C372.760223,23.505915 377.160797,33.188091 375.318878,44.792618 
	C375.227173,45.370522 375.608582,46.023521 375.732056,46.497124 
	C378.830841,46.497124 381.708160,46.497124 385.068787,46.497124 
	C385.068787,40.460705 383.358490,34.081783 385.431549,29.366047 
	C389.509827,20.088871 395.689606,11.735530 401.000000,3.000004 
M129.990250,89.577629 
	C129.990250,95.367653 129.990250,101.157677 129.990250,107.041977 
	C133.186539,107.041977 135.907333,107.041977 138.714325,107.041977 
	C138.714325,92.022133 138.714325,77.288155 138.714325,62.156464 
	C136.820786,62.156464 135.151306,62.394215 133.575378,62.111153 
	C129.140503,61.314587 127.025024,63.189667 125.833862,67.424622 
	C124.490616,72.200325 122.462418,76.786163 120.680786,81.434906 
	C119.243637,85.184799 117.730164,88.905441 115.882118,93.568718 
	C112.720757,85.303848 109.989136,78.200775 107.286285,71.086769 
	C103.814537,61.949047 103.824402,61.941925 94.207153,62.215031 
	C93.917198,62.223267 93.633995,62.468765 93.251266,62.649036 
	C93.251266,77.470749 93.251266,92.319946 93.251266,106.949684 
	C96.217834,106.949684 98.799965,106.949684 101.982864,106.949684 
	C101.982864,98.176201 101.982864,89.759109 101.982864,81.342010 
	C105.557854,88.559944 108.325058,95.812286 111.035568,103.085762 
	C111.917305,105.451866 112.507538,107.468590 115.984978,107.475586 
	C119.565773,107.482780 119.973595,105.221764 120.823860,102.946152 
	C123.620163,95.462196 126.390610,87.968559 129.170975,80.478638 
	C129.444016,80.558746 129.717041,80.638855 129.990082,80.718964 
	C129.990082,83.350006 129.990082,85.981056 129.990250,89.577629 
M213.412613,107.246727 
	C219.633286,105.677879 224.418655,101.786568 224.850327,95.539192 
	C225.609726,84.549026 225.062637,73.468590 225.062637,62.338978 
	C222.497482,62.338978 219.723038,62.338978 216.341141,62.338978 
	C216.341141,64.313141 216.354340,66.093758 216.338867,67.874115 
	C216.272369,75.524208 216.455704,83.188019 216.048203,90.820129 
	C215.687775,97.570099 210.687180,100.853073 204.228653,99.086823 
	C199.314407,97.742897 198.096649,93.822456 198.034210,89.444176 
	C197.906738,80.506607 197.996033,71.565941 197.996033,62.417297 
	C194.589127,62.417297 191.705002,62.417297 188.909424,62.417297 
	C188.909424,73.132179 188.615906,83.573105 189.029404,93.985954 
	C189.246185,99.444649 192.345169,104.220131 197.589996,105.845566 
	C202.319412,107.311264 207.588852,107.034424 213.412613,107.246727 
M237.614090,105.040840 
	C243.573914,108.506195 249.890976,108.981674 256.370026,106.984177 
	C262.576599,105.070686 266.088013,100.201576 266.053619,94.020515 
	C266.020813,88.128212 262.983887,84.081070 256.682953,82.050781 
	C253.060135,80.883453 249.135712,80.517754 245.678787,79.023682 
	C243.801620,78.212364 242.619186,75.793617 241.123383,74.099915 
	C242.863632,72.571198 244.459198,70.040520 246.380142,69.763115 
	C248.875702,69.402748 252.778336,69.971443 254.049072,71.662697 
	C257.337433,76.039268 261.216522,74.519424 265.180054,74.522179 
	C263.710510,64.063454 252.107239,58.557899 241.017548,62.796535 
	C234.857681,65.150917 231.673477,69.840805 231.926254,76.186729 
	C232.150208,81.808815 235.129288,85.323792 241.643082,87.257523 
	C245.458481,88.390182 249.478775,88.917084 253.175644,90.324097 
	C254.705429,90.906326 256.656830,93.142838 256.571106,94.511406 
	C256.462982,96.237732 254.579224,99.140114 253.265533,99.252930 
	C249.854584,99.545830 244.814453,99.853676 243.170837,97.874664 
	C239.501465,93.456535 235.580917,94.371407 229.375961,94.647438 
	C232.416519,98.640511 234.701035,101.640671 237.614090,105.040840 
M163.371185,62.154339 
	C158.598557,62.154339 153.825943,62.154339 149.063538,62.154339 
	C149.063538,77.526428 149.063538,92.264137 149.063538,107.099602 
	C152.120300,107.099602 154.869507,107.099602 158.083923,107.099602 
	C158.083923,101.987961 158.083923,97.070862 158.083923,91.787239 
	C161.846970,91.787239 165.162933,92.010071 168.439804,91.746696 
	C179.603622,90.849442 185.420151,82.249779 182.075211,71.803635 
	C179.905685,65.028282 174.824310,62.266647 163.371185,62.154339 
M62.922840,71.613289 
	C67.354073,81.631393 71.779663,91.652000 76.218575,101.666702 
	C79.051056,108.057091 80.537903,108.660599 88.182182,106.381119 
	C82.661613,93.936043 77.138481,81.531906 71.656212,69.109734 
	C68.113808,61.083061 68.140617,61.071228 58.992161,62.744457 
	C60.218159,65.509735 61.416428,68.212479 62.922840,71.613289 
M52.769764,104.542740 
	C55.896557,97.361389 59.023350,90.180038 62.695499,81.746162 
	C58.244301,82.636070 53.385204,82.248535 52.350597,84.053375 
	C48.221813,91.255913 45.283028,99.140610 41.903797,106.772827 
	C42.190987,107.230530 42.478176,107.688240 42.765366,108.145943 
	C45.957935,107.180382 49.150501,106.214821 52.769764,104.542740 
z"/>
<path fill="#242422" opacity="1.000000" stroke="none" 
	d="
M138.545898,1.000000 
	C145.475952,4.026771 150.956253,7.915030 151.987259,16.017469 
	C147.528687,16.130421 143.495392,17.458914 140.205460,12.333837 
	C137.173431,7.610547 129.127151,8.617555 125.356018,13.260010 
	C120.873901,18.777721 120.911644,29.788210 125.431389,35.253208 
	C129.330063,39.967239 137.173370,40.897205 140.217239,36.083920 
	C143.430893,31.002150 147.467590,32.112801 151.780869,32.208427 
	C150.903152,44.898933 136.895035,50.643814 125.173279,45.860031 
	C116.670120,42.389786 111.626732,32.789825 112.500534,22.428196 
	C113.453209,11.131335 118.896965,4.115881 128.818741,1.316134 
	C132.030594,1.000000 135.061188,1.000000 138.545898,1.000000 
z"/>
<path fill="#232321" opacity="1.000000" stroke="none" 
	d="
M281.550018,1.000000 
	C289.109924,3.435144 294.470459,7.542468 296.016266,15.858778 
	C291.636932,16.152515 287.738800,17.642874 284.421661,12.578938 
	C281.102142,7.511404 272.711578,8.565742 268.925232,13.767504 
	C264.991974,19.171164 264.962646,29.105129 268.863922,34.539238 
	C272.591888,39.731930 280.617004,41.195362 283.883942,36.345566 
	C287.257385,31.337631 291.220795,31.868649 295.796234,32.288002 
	C293.813538,45.539177 278.900421,51.891151 266.824280,44.743900 
	C259.238617,40.254326 255.230164,30.620579 256.697052,20.404549 
	C258.170654,10.141759 263.394012,3.983418 272.812988,1.312151 
	C275.700012,1.000000 278.400024,1.000000 281.550018,1.000000 
z"/>
<path fill="#222221" opacity="1.000000" stroke="none" 
	d="
M1.000000,79.460632 
	C1.743262,77.197647 2.431707,75.370338 3.239086,73.597183 
	C7.152838,65.001823 15.369009,60.643635 25.319920,61.845428 
	C33.542229,62.838459 38.906544,68.073181 40.457481,76.757187 
	C35.954071,76.976219 31.965403,77.795723 28.554775,72.739807 
	C25.103266,67.623276 16.226744,69.378304 12.979684,75.255898 
	C9.626696,81.325249 9.587929,87.796196 12.758690,93.909004 
	C16.561090,101.239525 24.979670,101.332657 30.479124,95.189491 
	C32.394665,93.049728 36.569855,92.932846 40.113544,91.759506 
	C39.680027,106.373566 22.658649,111.988106 11.404216,105.252792 
	C6.085919,102.070015 3.184955,97.195831 1.310083,91.186752 
	C1.000000,87.307091 1.000000,83.614182 1.000000,79.460632 
z"/>
<path fill="#252524" opacity="1.000000" stroke="none" 
	d="
M401.000000,2.500004 
	C395.689606,11.735530 389.509827,20.088871 385.431549,29.366047 
	C383.358490,34.081783 385.068787,40.460705 385.068787,46.497124 
	C381.708160,46.497124 378.830841,46.497124 375.732056,46.497124 
	C375.608582,46.023521 375.227173,45.370522 375.318878,44.792618 
	C377.160797,33.188091 372.760223,23.505915 366.417450,14.224169 
	C363.766571,10.344999 362.011353,5.853761 359.924469,1.320405 
	C362.041656,1.000000 364.083344,1.000000 366.705841,1.331281 
	C368.580505,2.714345 370.261017,3.523742 371.099243,4.861091 
	C374.239075,9.870573 377.103546,15.052639 380.443176,20.811296 
	C384.203247,13.755030 387.601624,7.377516 391.000000,1.000001 
	C394.333344,1.333334 397.666656,1.666667 401.000000,2.500004 
z"/>
<path fill="#222221" opacity="1.000000" stroke="none" 
	d="
M47.562500,1.000000 
	C48.767948,2.552224 50.163403,4.089636 50.200451,5.659113 
	C50.416107,14.795036 50.312874,23.938490 50.317108,33.079399 
	C50.317856,34.697529 50.317211,36.315655 50.317211,38.361889 
	C57.461510,38.361889 64.056480,38.361889 70.941818,38.361889 
	C70.941818,41.338970 70.941818,43.889263 70.941818,46.672829 
	C61.043724,46.672829 51.307026,46.672829 40.973595,46.672829 
	C40.973595,31.716562 40.973595,16.826784 40.986797,1.468502 
	C43.041668,1.000000 45.083332,1.000000 47.562500,1.000000 
z"/>
<path fill="#1E1E1C" opacity="1.000000" stroke="none" 
	d="
M247.571533,0.999998 
	C248.673386,1.946238 249.924957,2.887376 249.933365,3.839488 
	C250.058838,18.055546 250.020126,32.273052 250.020126,46.687096 
	C246.801270,46.687096 244.060501,46.687096 240.702408,46.687096 
	C240.702408,35.646961 240.620499,24.760616 240.744995,13.876632 
	C240.791138,9.844155 241.321991,5.817224 241.815887,1.393882 
	C243.714355,1.000000 245.428711,1.000000 247.571533,0.999998 
z"/>
<path fill="#F8F8F8" opacity="1.000000" stroke="none" 
	d="
M390.531372,1.000001 
	C387.601624,7.377516 384.203247,13.755030 380.443176,20.811296 
	C377.103546,15.052639 374.239075,9.870573 371.099243,4.861091 
	C370.261017,3.523742 368.580505,2.714345 367.143341,1.331281 
	C374.687592,1.000000 382.375153,1.000000 390.531372,1.000001 
z"/>
<path fill="#3D3D3D" opacity="1.000000" stroke="none" 
	d="
M34.375000,144.000000 
	C36.352867,138.108841 38.705734,132.217667 41.058601,126.326508 
	C41.694771,126.207916 42.330936,126.089333 42.967106,125.970741 
	C45.179211,131.774033 47.391319,137.577332 49.801712,143.690308 
	C49.250000,144.000000 48.500000,144.000000 47.429916,143.602173 
	C46.531773,139.806366 44.765186,138.455872 41.112209,138.691925 
	C37.281700,138.939438 37.461769,141.544891 37.000000,144.000000 
	C36.250000,144.000000 35.500000,144.000000 34.375000,144.000000 
z"/>
<path fill="#2E2E2E" opacity="1.000000" stroke="none" 
	d="
M145.444168,144.000000 
	C145.000000,138.362320 145.000000,132.724625 145.000000,126.651764 
	C147.163483,126.651764 149.286865,126.561729 151.396576,126.692429 
	C152.350571,126.751534 153.615646,126.971741 154.140533,127.610847 
	C155.018738,128.680191 156.264252,130.892075 155.883118,131.323929 
	C152.709518,134.919907 160.770905,140.908127 153.125427,143.670410 
	C150.629440,144.000000 148.258896,144.000000 145.444168,144.000000 
M151.166962,135.995789 
	C149.777679,136.074631 148.388397,136.153458 146.878113,136.239166 
	C146.993546,138.345001 147.081223,139.944702 147.233185,142.716919 
	C149.873306,141.637772 151.942764,140.791885 154.012222,139.945999 
	C153.355957,138.661118 152.699692,137.376251 151.166962,135.995789 
M147.491776,128.806671 
	C147.300201,130.484680 147.108627,132.162689 146.907272,133.926392 
	C148.783264,133.926392 150.148331,134.309799 151.053436,133.828415 
	C152.160706,133.239502 152.882507,131.925827 153.770981,130.925537 
	C151.973816,130.170441 150.176666,129.415344 147.491776,128.806671 
z"/>
<path fill="#393939" opacity="1.000000" stroke="none" 
	d="
M192.428467,144.000000 
	C191.244781,142.437531 190.217651,140.945877 189.788559,139.298462 
	C188.763474,135.362869 190.834717,131.732193 194.215286,131.069077 
	C197.744827,130.376740 199.839203,132.584061 200.324432,137.792526 
	C197.596848,137.943726 194.876160,138.094528 192.065170,138.250351 
	C193.835709,142.824539 193.884232,142.835144 200.883133,139.614426 
	C199.520370,141.470520 198.846085,142.388901 198.085907,143.653641 
	C196.285645,144.000000 194.571289,144.000000 192.428467,144.000000 
z"/>
<path fill="#3D3D3D" opacity="1.000000" stroke="none" 
	d="
M93.428467,144.000000 
	C92.104324,142.307388 90.860382,140.706436 90.385864,138.903000 
	C89.413429,135.207291 91.877892,131.488815 95.248169,131.020477 
	C98.863113,130.518143 100.826332,132.780396 100.985359,137.962738 
	C98.375900,137.962738 95.772003,137.962738 93.168098,137.962738 
	C92.930679,138.417023 92.693253,138.871307 92.455826,139.325592 
	C93.775436,140.204987 95.072609,141.120972 96.423264,141.949768 
	C97.204376,142.429077 98.071678,142.767914 98.950096,143.584991 
	C97.285645,144.000000 95.571281,144.000000 93.428467,144.000000 
z"/>
<path fill="#2E2E2E" opacity="1.000000" stroke="none" 
	d="
M9.428463,144.000000 
	C8.002509,141.865341 7.005018,139.730682 5.694416,136.925964 
	C8.184591,136.570953 10.453924,136.247437 12.893427,135.899643 
	C11.813640,131.052856 8.940310,133.631393 6.410729,134.873077 
	C6.199983,134.378159 5.989235,133.883240 5.778489,133.388306 
	C7.473382,132.603607 9.361680,130.946243 10.811450,131.267548 
	C12.419421,131.623932 14.385960,133.580200 14.831115,135.212219 
	C15.500890,137.667755 14.984027,140.446976 14.985823,143.544281 
	C13.285642,144.000000 11.571282,144.000000 9.428463,144.000000 
z"/>
<path fill="#393939" opacity="1.000000" stroke="none" 
	d="
M62.375000,144.000000 
	C62.203518,139.909195 62.407032,135.818390 62.608376,131.771164 
	C64.105515,131.489014 65.476433,130.888214 66.741264,131.061539 
	C69.625206,131.456741 72.681702,131.881851 72.101456,136.183884 
	C71.793396,138.467911 71.916809,140.810135 71.922722,143.563049 
	C71.555557,144.000000 71.111107,144.000000 70.413651,143.554138 
	C70.091476,140.805679 70.261650,138.459396 69.852348,136.218948 
	C69.647133,135.095581 68.386452,134.165024 67.603111,133.147278 
	C66.694489,134.136444 65.154182,135.038757 65.003815,136.132202 
	C64.649841,138.706299 64.959084,141.371597 65.000000,144.000000 
	C64.250000,144.000000 63.500000,144.000000 62.375000,144.000000 
z"/>
<path fill="#F4F4F3" opacity="1.000000" stroke="none" 
	d="
M209.517105,130.949463 
	C210.208511,131.019043 210.899933,131.088623 211.265106,131.256256 
	C211.292572,135.569550 211.646286,139.784775 212.000000,144.000000 
	C210.285629,144.000000 208.571243,144.000000 206.402893,143.554077 
	C206.368729,138.984787 204.641510,134.081909 210.063690,131.774704 
	C209.881485,131.499619 209.699295,131.224548 209.517105,130.949463 
z"/>
<path fill="#343434" opacity="1.000000" stroke="none" 
	d="
M126.428459,144.000000 
	C125.589134,142.893219 125.178276,141.786438 124.719955,140.551804 
	C127.176620,141.040588 129.374161,141.477814 132.288330,142.057632 
	C130.906281,137.015503 121.984909,139.304718 125.689049,132.782730 
	C126.448639,131.445282 130.372375,131.904892 132.837616,131.536163 
	C132.907944,132.237274 132.978271,132.938400 133.048615,133.639511 
	C131.072723,133.639511 129.096832,133.639511 126.737503,133.639511 
	C128.016876,137.809601 138.368134,135.866486 132.168167,143.680176 
	C130.285645,144.000000 128.571274,144.000000 126.428459,144.000000 
z"/>
<path fill="#282827" opacity="1.000000" stroke="none" 
	d="
M108.056503,131.890900 
	C111.543571,131.675034 115.051567,131.174622 118.504059,131.428680 
	C119.454407,131.498611 120.777679,133.741318 120.983452,135.127533 
	C121.369186,137.726028 121.063988,140.427109 121.023087,143.542755 
	C120.555557,144.000000 120.111107,144.000000 119.361084,143.549194 
	C119.030830,140.801788 119.255989,138.462906 118.877335,136.226242 
	C118.684601,135.087875 117.405983,134.133331 116.618225,133.095703 
	C115.753517,134.106110 114.305611,135.030655 114.141678,136.144241 
	C113.763359,138.714096 114.008041,141.375641 114.000000,144.000000 
	C113.555557,144.000000 113.111107,144.000000 112.324387,143.550690 
	C111.945595,140.815659 112.340118,138.401108 111.709885,136.292862 
	C111.335571,135.040710 109.347099,134.271103 108.078049,133.052246 
	C108.052963,132.510513 108.047890,132.200821 108.056503,131.890900 
z"/>
<path fill="#F8F8F8" opacity="1.000000" stroke="none" 
	d="
M85.000000,144.000000 
	C83.285622,144.000000 81.571251,144.000000 79.394592,143.557007 
	C79.269081,140.016235 79.605858,136.918472 80.288544,133.693634 
	C83.384491,132.356125 84.639603,133.681747 84.838058,136.259064 
	C85.035896,138.828308 84.957367,141.418808 85.000000,144.000000 
z"/>
<path fill="#393939" opacity="1.000000" stroke="none" 
	d="
M183.399994,144.000000 
	C181.457458,138.715622 179.734222,133.433670 182.245026,127.576180 
	C183.971603,129.507217 185.214691,130.897491 186.440918,132.268921 
	C182.590134,134.713699 182.746689,140.123062 186.993927,143.582794 
	C185.933334,144.000000 184.866653,144.000000 183.399994,144.000000 
z"/>
<path fill="#F4F4F3" opacity="1.000000" stroke="none" 
	d="
M108.084366,133.284531 
	C109.347099,134.271103 111.335571,135.040710 111.709885,136.292862 
	C112.340118,138.401108 111.945595,140.815659 111.991051,143.550690 
	C110.611107,144.000000 109.222221,144.000000 107.343086,143.560822 
	C107.263351,139.842590 107.673859,136.563568 108.084366,133.284531 
z"/>
<path fill="#F8F8F8" opacity="1.000000" stroke="none" 
	d="
M114.416672,144.000000 
	C114.008041,141.375641 113.763359,138.714096 114.141678,136.144241 
	C114.305611,135.030655 115.753517,134.106110 116.618225,133.095703 
	C117.405983,134.133331 118.684601,135.087875 118.877335,136.226242 
	C119.255989,138.462906 119.030830,140.801788 119.027756,143.549194 
	C117.611107,144.000000 116.222221,144.000000 114.416672,144.000000 
z"/>
<path fill="#F8F8F8" opacity="1.000000" stroke="none" 
	d="
M65.416672,144.000000 
	C64.959084,141.371597 64.649841,138.706299 65.003815,136.132202 
	C65.154182,135.038757 66.694489,134.136444 67.603111,133.147278 
	C68.386452,134.165024 69.647133,135.095581 69.852348,136.218948 
	C70.261650,138.459396 70.091476,140.805679 70.080322,143.554138 
	C68.611107,144.000000 67.222221,144.000000 65.416672,144.000000 
z"/>
<path fill="#2E2E2E" opacity="1.000000" stroke="none" 
	d="
M21.399996,144.000000 
	C19.752903,138.711273 17.802826,133.430115 20.354948,127.619789 
	C22.022463,129.492447 23.259314,130.881470 24.478048,132.250153 
	C20.667519,134.606171 20.805622,140.178329 25.006912,143.584869 
	C23.933331,144.000000 22.866661,144.000000 21.399996,144.000000 
z"/>
<path fill="#F8F8F8" opacity="1.000000" stroke="none" 
	d="
M37.454109,144.000000 
	C37.461769,141.544891 37.281700,138.939438 41.112209,138.691925 
	C44.765186,138.455872 46.531773,139.806366 47.054916,143.602173 
	C43.969406,144.000000 40.938812,144.000000 37.454109,144.000000 
z"/>
<path fill="#232322" opacity="1.000000" stroke="none" 
	d="
M79.942635,133.820709 
	C79.605858,136.918472 79.269081,140.016235 78.966156,143.557007 
	C78.555557,144.000000 78.111107,144.000000 77.333328,144.000000 
	C77.000000,137.903320 77.000000,131.806641 77.000000,125.709969 
	C77.523849,125.673576 78.047699,125.637177 78.571556,125.600777 
	C78.807655,127.687965 79.043762,129.775146 79.626183,132.293106 
	C79.962547,133.089493 79.952591,133.455093 79.942635,133.820709 
z"/>
<path fill="#343434" opacity="1.000000" stroke="none" 
	d="
M169.841202,142.988022 
	C169.876999,143.155212 169.912796,143.322418 169.974304,143.744812 
	C167.629440,144.000000 165.258896,144.000000 162.444168,144.000000 
	C161.097443,139.871765 160.194885,135.743530 159.292313,131.615295 
	C160.085602,131.473892 160.878891,131.332504 161.672165,131.191101 
	C161.859543,133.211395 162.102631,135.228470 162.219711,137.252823 
	C162.356216,139.613525 162.095032,142.198502 166.452667,141.954865 
	C168.064056,142.359756 168.952621,142.673889 169.841202,142.988022 
z"/>
<path fill="#5B5B5B" opacity="1.000000" stroke="none" 
	d="
M174.375000,144.000000 
	C174.000000,139.737869 174.000000,135.475754 174.000000,131.213623 
	C174.955460,131.192490 175.910919,131.171341 176.866379,131.150208 
	C176.866379,135.127426 176.866379,139.104645 176.933197,143.540924 
	C176.250000,144.000000 175.500000,144.000000 174.375000,144.000000 
z"/>
<path fill="#343434" opacity="1.000000" stroke="none" 
	d="
M108.078049,133.052246 
	C107.673859,136.563568 107.263351,139.842590 106.926422,143.560822 
	C106.555557,144.000000 106.111107,144.000000 105.333328,144.000000 
	C104.900429,140.548096 104.666428,137.090210 104.819000,133.649490 
	C104.848190,132.991226 106.400429,132.400497 107.653252,131.834747 
	C108.047890,132.200821 108.052963,132.510513 108.078049,133.052246 
z"/>
<path fill="#B8B8B6" opacity="1.000000" stroke="none" 
	d="
M355.531342,1.000000 
	C356.000000,1.000000 356.073792,1.478771 355.578522,1.728822 
	C342.746613,2.018914 330.410004,2.058954 318.073364,2.098994 
	C318.051270,1.916486 318.029175,1.733978 318.003540,1.275735 
	C330.354218,1.000000 342.708466,1.000000 355.531342,1.000000 
z"/>
<path fill="#B8B8B6" opacity="1.000000" stroke="none" 
	d="
M155.052872,2.074209 
	C155.032257,1.895755 155.011658,1.717301 154.995514,1.269423 
	C167.354233,1.000000 179.708450,1.000000 192.531342,1.000000 
	C193.015930,1.168109 193.031845,1.336218 192.553101,1.743766 
	C179.723267,2.013539 167.388062,2.043874 155.052872,2.074209 
z"/>
<path fill="#2E2E2E" opacity="1.000000" stroke="none" 
	d="
M80.288544,133.693634 
	C79.952591,133.455093 79.962547,133.089493 80.004257,132.451324 
	C84.655579,130.209122 86.828995,131.434128 87.040398,136.237381 
	C87.140671,138.515610 87.014305,140.803818 86.995300,143.543747 
	C86.555557,144.000000 86.111107,144.000000 85.333328,144.000000 
	C84.957367,141.418808 85.035896,138.828308 84.838058,136.259064 
	C84.639603,133.681747 83.384491,132.356125 80.288544,133.693634 
z"/>
<path fill="#282827" opacity="1.000000" stroke="none" 
	d="
M209.036713,131.042191 
	C209.699295,131.224548 209.881485,131.499619 210.063690,131.774704 
	C204.641510,134.081909 206.368729,138.984787 205.974457,143.554077 
	C205.555557,144.000000 205.111099,144.000000 204.333328,144.000000 
	C204.000000,140.010010 204.000000,136.020035 204.000000,131.833328 
	C205.570862,131.592545 207.063583,131.363724 209.036713,131.042191 
z"/>
<path fill="#B8B8B6" opacity="1.000000" stroke="none" 
	d="
M33.531342,1.000000 
	C33.974632,1.207784 33.949265,1.415567 33.408546,1.857460 
	C22.981136,2.123621 13.069072,2.155674 3.157008,2.187727 
	C3.123771,1.990707 3.090534,1.793687 3.028649,1.298334 
	C13.020894,1.000000 23.041788,1.000000 33.531342,1.000000 
z"/>
<path fill="#B8B8B6" opacity="1.000000" stroke="none" 
	d="
M106.531342,1.000000 
	C107.000000,1.000000 107.073608,1.468347 106.581421,1.722354 
	C96.410431,2.009105 86.731621,2.041848 77.052818,2.074591 
	C77.027367,1.896310 77.001915,1.718030 76.988235,1.269875 
	C86.687561,1.000000 96.375122,1.000000 106.531342,1.000000 
z"/>
<path fill="#282827" opacity="1.000000" stroke="none" 
	d="
M53.333332,144.000000 
	C53.000000,139.812286 53.000000,135.624573 53.000000,131.436874 
	C53.650558,131.406906 54.301117,131.376953 54.951675,131.346985 
	C54.951675,135.267258 54.951675,139.187546 54.975838,143.553909 
	C54.555553,144.000000 54.111111,144.000000 53.333332,144.000000 
z"/>
<path fill="#282827" opacity="1.000000" stroke="none" 
	d="
M212.333328,144.000000 
	C211.646286,139.784775 211.292572,135.569550 211.478027,131.412201 
	C212.669098,135.343307 213.320999,139.216553 213.986450,143.544891 
	C213.555557,144.000000 213.111099,144.000000 212.333328,144.000000 
z"/>
<path fill="#929292" opacity="1.000000" stroke="none" 
	d="
M199.531815,2.306866 
	C199.469620,2.078292 199.407425,1.849717 199.172623,1.310572 
	C205.687637,1.000000 212.375290,1.000000 219.531464,1.000000 
	C220.000000,1.000000 219.964127,1.443521 219.566223,1.757508 
	C212.622833,2.149952 206.077316,2.228409 199.531815,2.306866 
z"/>
<path fill="#8A8A8A" opacity="1.000000" stroke="none" 
	d="
M311.550629,1.000000 
	C311.942719,1.192575 311.885406,1.385150 311.353699,1.873805 
	C308.248352,2.108725 305.617401,2.047565 302.986481,1.986405 
	C302.986481,1.986405 303.015289,1.493505 303.007629,1.246752 
	C305.700409,1.000000 308.400848,1.000000 311.550629,1.000000 
z"/>
<path fill="#222221" opacity="1.000000" stroke="none" 
	d="
M129.990173,89.094864 
	C129.990082,85.981056 129.990082,83.350006 129.990082,80.718964 
	C129.717041,80.638855 129.444016,80.558746 129.170975,80.478638 
	C126.390610,87.968559 123.620163,95.462196 120.823860,102.946152 
	C119.973595,105.221764 119.565773,107.482780 115.984978,107.475586 
	C112.507538,107.468590 111.917305,105.451866 111.035568,103.085762 
	C108.325058,95.812286 105.557854,88.559944 101.982864,81.342010 
	C101.982864,89.759109 101.982864,98.176201 101.982864,106.949684 
	C98.799965,106.949684 96.217834,106.949684 93.251266,106.949684 
	C93.251266,92.319946 93.251266,77.470749 93.251266,62.649036 
	C93.633995,62.468765 93.917198,62.223267 94.207153,62.215031 
	C103.824402,61.941925 103.814537,61.949047 107.286285,71.086769 
	C109.989136,78.200775 112.720757,85.303848 115.882118,93.568718 
	C117.730164,88.905441 119.243637,85.184799 120.680786,81.434906 
	C122.462418,76.786163 124.490616,72.200325 125.833862,67.424622 
	C127.025024,63.189667 129.140503,61.314587 133.575378,62.111153 
	C135.151306,62.394215 136.820786,62.156464 138.714325,62.156464 
	C138.714325,77.288155 138.714325,92.022133 138.714325,107.041977 
	C135.907333,107.041977 133.186539,107.041977 129.990250,107.041977 
	C129.990250,101.157677 129.990250,95.367653 129.990173,89.094864 
z"/>
<path fill="#232322" opacity="1.000000" stroke="none" 
	d="
M199.469925,2.751417 
	C206.077316,2.228409 212.622833,2.149952 219.633759,1.969496 
	C228.309891,2.944862 232.337479,6.423285 233.591141,13.519855 
	C234.847153,20.629539 231.973984,25.460699 223.854965,29.669977 
	C227.546112,35.171215 231.226425,40.656326 234.990921,46.266891 
	C228.158875,48.279575 223.264297,46.820545 220.288879,40.256786 
	C219.135239,37.711834 217.480133,35.287254 215.608322,33.208706 
	C214.116974,31.552645 211.949524,30.505426 208.961823,28.397449 
	C208.961823,35.558620 208.961823,40.844913 208.961823,46.512737 
	C205.744293,46.512737 202.860458,46.512737 199.408035,46.512737 
	C199.408035,32.096828 199.408035,17.646399 199.469925,2.751417 
M216.243546,9.852787 
	C213.832870,9.852787 211.422211,9.852787 209.125778,9.852787 
	C209.125778,14.330460 209.125778,18.085108 209.125778,22.147297 
	C211.860870,22.147297 214.321579,22.136168 216.782150,22.149801 
	C220.886475,22.172541 224.165054,21.015337 224.266174,16.190538 
	C224.365204,11.464863 221.411636,9.856103 216.243546,9.852787 
z"/>
<path fill="#282827" opacity="1.000000" stroke="none" 
	d="
M213.016357,107.386414 
	C207.588852,107.034424 202.319412,107.311264 197.589996,105.845566 
	C192.345169,104.220131 189.246185,99.444649 189.029404,93.985954 
	C188.615906,83.573105 188.909424,73.132179 188.909424,62.417297 
	C191.705002,62.417297 194.589127,62.417297 197.996033,62.417297 
	C197.996033,71.565941 197.906738,80.506607 198.034210,89.444176 
	C198.096649,93.822456 199.314407,97.742897 204.228653,99.086823 
	C210.687180,100.853073 215.687775,97.570099 216.048203,90.820129 
	C216.455704,83.188019 216.272369,75.524208 216.338867,67.874115 
	C216.354340,66.093758 216.341141,64.313141 216.341141,62.338978 
	C219.723038,62.338978 222.497482,62.338978 225.062637,62.338978 
	C225.062637,73.468590 225.609726,84.549026 224.850327,95.539192 
	C224.418655,101.786568 219.633286,105.677879 213.016357,107.386414 
z"/>
<path fill="#252524" opacity="1.000000" stroke="none" 
	d="
M3.125002,2.643328 
	C13.069072,2.155674 22.981136,2.123621 33.343620,2.164663 
	C33.794037,4.563051 33.794037,6.888345 33.794037,9.840610 
	C26.734154,9.840610 19.694874,9.840610 12.686222,9.840610 
	C12.686222,13.413509 12.686222,16.356283 12.686222,19.719475 
	C19.037777,19.719475 25.136192,19.719475 31.540291,19.719475 
	C31.540291,22.526030 31.540291,24.916742 31.540291,27.850716 
	C25.248613,27.850716 19.016665,27.850716 12.605490,27.850716 
	C12.605490,31.486191 12.605490,34.585991 12.605490,38.293648 
	C19.634176,38.293648 26.522894,38.293648 33.627029,38.293648 
	C33.627029,41.333534 33.627029,43.769497 33.627029,46.557030 
	C23.708490,46.557030 13.805637,46.557030 3.092997,46.557030 
	C3.092997,32.195148 3.092997,17.647038 3.125002,2.643328 
z"/>
<path fill="#252523" opacity="1.000000" stroke="none" 
	d="
M237.299805,104.840836 
	C234.701035,101.640671 232.416519,98.640511 229.375961,94.647438 
	C235.580917,94.371407 239.501465,93.456535 243.170837,97.874664 
	C244.814453,99.853676 249.854584,99.545830 253.265533,99.252930 
	C254.579224,99.140114 256.462982,96.237732 256.571106,94.511406 
	C256.656830,93.142838 254.705429,90.906326 253.175644,90.324097 
	C249.478775,88.917084 245.458481,88.390182 241.643082,87.257523 
	C235.129288,85.323792 232.150208,81.808815 231.926254,76.186729 
	C231.673477,69.840805 234.857681,65.150917 241.017548,62.796535 
	C252.107239,58.557899 263.710510,64.063454 265.180054,74.522179 
	C261.216522,74.519424 257.337433,76.039268 254.049072,71.662697 
	C252.778336,69.971443 248.875702,69.402748 246.380142,69.763115 
	C244.459198,70.040520 242.863632,72.571198 241.123383,74.099915 
	C242.619186,75.793617 243.801620,78.212364 245.678787,79.023682 
	C249.135712,80.517754 253.060135,80.883453 256.682953,82.050781 
	C262.983887,84.081070 266.020813,88.128212 266.053619,94.020515 
	C266.088013,100.201576 262.576599,105.070686 256.370026,106.984177 
	C249.890976,108.981674 243.573914,108.506195 237.299805,104.840836 
z"/>
<path fill="#222221" opacity="1.000000" stroke="none" 
	d="
M76.994949,2.535315 
	C86.731621,2.041848 96.410431,2.009105 106.559555,1.958392 
	C107.195602,4.392988 107.361336,6.845555 107.564201,9.847572 
	C100.325645,9.847572 93.449051,9.847572 86.334511,9.847572 
	C86.334511,13.298978 86.334511,16.222143 86.334511,19.700888 
	C92.565231,19.700888 98.803177,19.700888 105.247574,19.700888 
	C105.247574,22.665318 105.247574,25.075800 105.247574,27.830238 
	C98.874901,27.830238 92.771797,27.830238 86.374802,27.830238 
	C86.374802,31.394436 86.374802,34.616108 86.374802,38.285793 
	C93.277336,38.285793 100.027641,38.285793 107.095154,38.285793 
	C107.095154,41.293163 107.095154,43.862190 107.095154,46.669342 
	C97.178810,46.669342 87.422791,46.669342 76.937088,46.669342 
	C76.937088,32.134789 76.937088,17.565413 76.994949,2.535315 
z"/>
<path fill="#212220" opacity="1.000000" stroke="none" 
	d="
M163.847626,62.155273 
	C174.824310,62.266647 179.905685,65.028282 182.075211,71.803635 
	C185.420151,82.249779 179.603622,90.849442 168.439804,91.746696 
	C165.162933,92.010071 161.846970,91.787239 158.083923,91.787239 
	C158.083923,97.070862 158.083923,101.987961 158.083923,107.099602 
	C154.869507,107.099602 152.120300,107.099602 149.063538,107.099602 
	C149.063538,92.264137 149.063538,77.526428 149.063538,62.154339 
	C153.825943,62.154339 158.598557,62.154339 163.847626,62.155273 
M165.151093,70.201851 
	C162.885681,70.201851 160.620270,70.201851 158.339264,70.201851 
	C158.339264,75.030418 158.339264,79.244698 158.339264,83.416351 
	C168.984024,84.528397 172.814453,83.114746 173.496002,77.973351 
	C174.088837,73.501259 171.937515,71.271439 165.151093,70.201851 
z"/>
<path fill="#242422" opacity="1.000000" stroke="none" 
	d="
M154.991638,2.522445 
	C167.388062,2.043874 179.723267,2.013539 192.526627,1.995670 
	C192.994797,4.487314 192.994797,6.966493 192.994797,9.905728 
	C188.534805,9.905728 183.964035,9.905728 178.912323,9.905728 
	C178.912323,22.373781 178.912323,34.393326 178.912323,46.653938 
	C175.523956,46.653938 172.630463,46.653938 169.408813,46.653938 
	C169.408813,34.531418 169.408813,22.626415 169.408813,10.220734 
	C164.553864,10.220734 160.005325,10.220734 154.930420,10.220734 
	C154.930420,7.489295 154.930420,5.229988 154.991638,2.522445 
z"/>
<path fill="#242422" opacity="1.000000" stroke="none" 
	d="
M318.016663,2.545651 
	C330.410004,2.058954 342.746613,2.018914 355.553345,1.969724 
	C356.146637,4.434450 356.269806,6.908327 356.416321,9.851688 
	C351.606873,9.851688 347.045532,9.851688 341.999268,9.851688 
	C341.999268,22.329245 341.999268,34.360065 341.999268,46.643650 
	C338.616516,46.643650 335.722168,46.643650 332.485687,46.643650 
	C332.485687,34.547115 332.485687,22.630606 332.485687,10.226391 
	C327.613403,10.226391 323.053955,10.226391 317.959991,10.226391 
	C317.959991,7.508166 317.959991,5.250237 318.016663,2.545651 
z"/>
<path fill="#242422" opacity="1.000000" stroke="none" 
	d="
M62.768768,71.264252 
	C61.416428,68.212479 60.218159,65.509735 58.992161,62.744457 
	C68.140617,61.071228 68.113808,61.083061 71.656212,69.109734 
	C77.138481,81.531906 82.661613,93.936043 88.182182,106.381119 
	C80.537903,108.660599 79.051056,108.057091 76.218575,101.666702 
	C71.779663,91.652000 67.354073,81.631393 62.768768,71.264252 
z"/>
<path fill="#212220" opacity="1.000000" stroke="none" 
	d="
M302.730530,2.326803 
	C305.617401,2.047565 308.248352,2.108725 311.313416,2.172472 
	C311.747589,16.913345 311.747589,31.651634 311.747589,46.644547 
	C308.620850,46.644547 305.738037,46.644547 302.474609,46.644547 
	C302.474609,31.823254 302.474609,17.245226 302.730530,2.326803 
z"/>
<path fill="#232322" opacity="1.000000" stroke="none" 
	d="
M52.556416,104.895996 
	C49.150501,106.214821 45.957935,107.180382 42.765366,108.145943 
	C42.478176,107.688240 42.190987,107.230530 41.903797,106.772827 
	C45.283028,99.140610 48.221813,91.255913 52.350597,84.053375 
	C53.385204,82.248535 58.244301,82.636070 62.695499,81.746162 
	C59.023350,90.180038 55.896557,97.361389 52.556416,104.895996 
z"/>
<path fill="#282827" opacity="1.000000" stroke="none" 
	d="
M169.954712,142.541519 
	C168.952621,142.673889 168.064056,142.359756 166.831650,141.944366 
	C167.251282,138.331696 168.014740,134.820282 168.778183,131.308884 
	C169.208206,131.305496 169.638214,131.302109 170.068237,131.298721 
	C170.068237,134.897476 170.068237,138.496246 169.954712,142.541519 
z"/>
<path fill="#F4F4F3" opacity="1.000000" stroke="none" 
	d="
M151.605194,136.043579 
	C152.699692,137.376251 153.355957,138.661118 154.012222,139.945984 
	C151.942764,140.791885 149.873306,141.637772 147.233185,142.716919 
	C147.081223,139.944702 146.993546,138.345001 146.878113,136.239166 
	C148.388397,136.153458 149.777679,136.074631 151.605194,136.043579 
z"/>
<path fill="#F4F4F3" opacity="1.000000" stroke="none" 
	d="
M147.935638,128.733459 
	C150.176666,129.415344 151.973816,130.170441 153.770981,130.925537 
	C152.882507,131.925827 152.160706,133.239502 151.053436,133.828415 
	C150.148331,134.309799 148.783264,133.926392 146.907272,133.926392 
	C147.108627,132.162689 147.300201,130.484680 147.935638,128.733459 
z"/>
<path fill="#FDFDFD" opacity="1.000000" stroke="none" 
	d="
M216.699371,9.858387 
	C221.411636,9.856103 224.365204,11.464863 224.266174,16.190538 
	C224.165054,21.015337 220.886475,22.172541 216.782150,22.149801 
	C214.321579,22.136168 211.860870,22.147297 209.125778,22.147297 
	C209.125778,18.085108 209.125778,14.330460 209.125778,9.852787 
	C211.422211,9.852787 213.832870,9.852787 216.699371,9.858387 
z"/>
<path fill="#F4F4F3" opacity="1.000000" stroke="none" 
	d="
M165.580688,70.208183 
	C171.937515,71.271439 174.088837,73.501259 173.496002,77.973351 
	C172.814453,83.114746 168.984024,84.528397 158.339264,83.416351 
	C158.339264,79.244698 158.339264,75.030418 158.339264,70.201851 
	C160.620270,70.201851 162.885681,70.201851 165.580688,70.208183 
z"/>
</svg>